<svg xmlns="http://www.w3.org/2000/svg" version="1.0" preserveAspectRatio="xMidYMid meet" viewBox="86.28 349.98 852.13 309.86">

<g transform="translate(0.000000,1024.000000) scale(0.100000,-0.100000)" fill="#000000" stroke="none">
<path d="M1795 6729 c-332 -48 -657 -301 -809 -630 -231 -501 -130 -1110 244 -1463 164 -154 387 -261 594 -283 l69 -8 -84 -56 c-104 -69 -176 -134 -234 -209 -59 -77 -72 -105 -55 -125 21 -26 41 -17 109 49 100 96 190 135 360 156 115 14 237 -2 371 -46 106 -35 138 -50 480 -226 361 -186 632 -261 875 -244 292 20 536 154 681 372 59 89 119 218 109 234 -4 6 -34 -10 -70 -35 -35 -25 -101 -63 -147 -85 -321 -150 -709 -133 -1445 66 -329 88 -395 102 -559 116 l-142 12 112 52 c242 113 378 213 506 372 377 468 353 1211 -52 1647 -249 266 -569 384 -913 334z m275 -144 c112 -30 199 -82 290 -174 96 -97 148 -186 198 -336 163 -491 95 -1037 -171 -1375 -128 -163 -311 -233 -517 -196 -306 55 -536 339 -604 746 -23 143 -29 301 -17 435 46 480 231 807 509 896 72 23 234 25 312 4z"/>
<path d="M5050 6524 c-45 -20 -68 -41 -91 -86 -37 -73 -20 -159 45 -216 44 -38 70 -46 141 -40 61 5 115 39 141 89 20 39 20 128 1 166 -45 85 -151 124 -237 87z"/>
<path d="M5120 5974 c-63 -8 -158 -20 -210 -26 l-95 -13 0 -29 c0 -32 13 -42 67 -51 52 -8 79 -33 89 -85 11 -58 0 -1013 -12 -1063 -11 -42 -43 -68 -97 -76 -34 -6 -37 -9 -40 -44 l-3 -37 300 0 301 0 0 34 c0 31 -4 35 -32 41 -52 12 -86 33 -103 65 -13 25 -15 115 -15 653 0 609 -2 651 -29 646 -4 -1 -58 -7 -121 -15z"/>
<path d="M3146 5962 c-11 -32 3 -47 51 -60 63 -17 98 -44 117 -92 14 -35 16 -100 16 -498 0 -495 2 -513 56 -611 37 -69 101 -126 182 -164 61 -28 78 -32 189 -35 103 -4 132 -1 191 17 75 23 157 77 232 155 24 25 48 46 52 46 5 0 5 -45 2 -100 l-7 -100 39 0 c21 0 116 9 209 20 94 11 178 20 188 20 15 0 18 7 15 37 -3 33 -7 38 -35 44 -41 8 -78 32 -99 65 -16 23 -17 83 -18 647 l-1 622 -245 0 -245 0 0 -29 c0 -26 5 -30 50 -43 70 -20 109 -53 124 -103 14 -48 16 -837 2 -886 -26 -93 -93 -167 -190 -213 -74 -34 -175 -36 -237 -4 -66 35 -127 112 -150 188 -5 17 -9 269 -9 560 l0 530 -237 3 c-224 2 -237 1 -242 -16z"/>
<path d="M5612 5967 c-13 -15 -48 -368 -39 -391 4 -9 18 -16 32 -16 21 0 31 12 64 78 51 101 99 155 166 188 49 23 72 27 212 35 151 8 193 6 193 -10 0 -10 -428 -759 -595 -1041 -117 -197 -134 -232 -125 -250 11 -20 18 -20 525 -20 l515 0 14 23 c9 13 22 92 33 201 18 170 18 180 2 200 -26 31 -47 13 -95 -83 -22 -45 -61 -102 -85 -127 -66 -67 -114 -81 -310 -89 -171 -8 -209 -4 -209 21 0 8 44 90 98 182 54 92 215 364 356 606 142 241 261 447 263 457 13 49 15 49 -512 49 -385 0 -495 -3 -503 -13z"/>
<path d="M6830 5958 c-5 -13 -16 -101 -25 -197 -16 -185 -14 -205 29 -199 15 2 34 27 64 83 52 97 108 157 176 186 41 18 80 24 206 30 118 7 158 6 167 -4 10 -9 -45 -112 -255 -482 -147 -258 -309 -540 -360 -627 -51 -86 -92 -161 -92 -166 0 -6 7 -18 16 -26 14 -14 75 -16 519 -16 477 0 505 1 514 18 13 25 64 399 57 417 -3 8 -17 15 -31 15 -22 0 -31 -12 -71 -94 -55 -114 -114 -177 -192 -206 -46 -17 -81 -21 -240 -23 -168 -2 -187 0 -184 14 1 9 113 207 248 440 408 701 464 801 464 825 0 12 -7 25 -16 28 -9 3 -234 6 -500 6 l-484 0 -10 -22z"/>
<path d="M7953 5973 c-27 -10 -14 -49 24 -74 52 -33 95 -93 133 -186 43 -101 284 -714 394 -1001 l85 -223 -20 -52 c-44 -112 -135 -271 -184 -324 -64 -67 -92 -70 -138 -16 -78 91 -81 93 -142 93 -53 0 -60 -3 -95 -38 -61 -61 -75 -138 -37 -212 17 -35 34 -51 77 -73 49 -26 63 -28 130 -24 127 7 228 74 327 220 126 183 167 280 495 1152 224 597 262 674 337 691 33 8 50 29 44 55 -5 19 -14 19 -252 17 l-246 -3 0 -30 c0 -28 2 -30 55 -37 68 -10 100 -41 100 -96 0 -46 -38 -202 -83 -342 -54 -170 -201 -580 -208 -580 -8 0 -273 685 -310 800 -41 129 -45 164 -20 189 12 12 31 21 44 21 49 0 67 11 67 40 0 16 -7 30 -16 34 -19 7 -543 7 -561 -1z"/>
</g>
</svg>